<svg width="200" height="210" viewBox="0 0 200 210" fill="none" xmlns="http://www.w3.org/2000/svg">
<path d="M100 200C155.228 200 200 155.228 200 100C200 44.7715 155.228 0 100 0C44.7715 0 0 44.7715 0 100C0 155.228 44.7715 200 100 200Z" fill="#FF6600"/>
<path d="M158.088 111.164C159.005 113.521 160.622 115.208 162.938 116.227C165.254 117.245 167.59 117.295 169.946 116.377C172.303 115.459 173.99 113.842 175.009 111.525C176.028 109.208 176.078 106.871 175.162 104.514C174.245 102.157 172.628 100.47 170.312 99.4515C167.996 98.4333 165.66 98.3831 163.304 99.3009C160.947 100.219 159.26 101.836 158.241 104.153C157.222 106.47 157.172 108.807 158.088 111.164ZM35.6914 84.5053C34.7746 82.1484 34.8187 79.8269 35.8237 77.5408L55.8034 31.9683C56.8974 29.6475 58.6004 28.0369 60.9124 27.1364C63.2688 26.2186 65.5896 26.262 67.8747 27.2666L162.175 68.7788C164.504 69.7661 166.812 71.4533 169.097 73.8404C171.383 76.2275 172.984 78.5995 173.9 80.9564L184.695 108.705C185.594 111.017 185.528 113.348 184.496 115.695C183.463 118.043 181.791 119.668 179.479 120.568L151.735 131.374C149.379 132.292 146.549 132.716 143.245 132.646C139.941 132.576 137.115 132.025 134.769 130.993L40.5202 89.6142C38.2005 88.5206 36.5909 86.8177 35.6914 84.5053Z" fill="white"/>
<path d="M157.473 116.568C158.868 118.702 160.814 120.031 163.311 120.553C165.808 121.076 168.124 120.64 170.258 119.244C172.392 117.849 173.72 115.903 174.243 113.405C174.766 110.908 174.329 108.592 172.934 106.458C171.539 104.324 169.593 102.995 167.096 102.472C164.599 101.95 162.284 102.386 160.15 103.781C158.016 105.177 156.687 107.123 156.165 109.621C155.642 112.118 156.078 114.434 157.473 116.568ZM29.7483 115.43C28.3532 113.295 27.9136 110.996 28.4294 108.532L38.6576 59.4232C39.2539 56.9064 40.599 54.9635 42.6927 53.5944C44.8267 52.199 47.1256 51.7591 49.5893 52.2749L152.683 73.9084C155.187 74.3978 157.815 75.5823 160.567 77.4617C163.319 79.3411 165.392 81.3479 166.787 83.4821L183.212 108.609C184.581 110.703 185.001 113.016 184.471 115.546C183.941 118.077 182.63 120.027 180.536 121.396L155.411 137.825C153.277 139.221 150.573 140.227 147.298 140.845C144.024 141.463 141.122 141.507 138.591 140.978L35.576 119.465C33.0597 118.869 31.1171 117.524 29.7483 115.43Z" fill="#FF9955"/>
<path d="M164.817 124.97C170.004 124.97 174.208 120.765 174.208 115.579C174.208 110.393 170.004 106.189 164.817 106.189C159.631 106.189 155.427 110.393 155.427 115.579C155.427 120.765 159.631 124.97 164.817 124.97Z" fill="white"/>
<path d="M158.286 122.075C160.089 123.878 162.266 124.779 164.818 124.779C167.369 124.779 169.546 123.878 171.349 122.075C173.152 120.272 174.053 118.095 174.053 115.543C174.053 112.992 173.152 110.815 171.349 109.012C169.546 107.209 167.369 106.307 164.818 106.307C162.266 106.307 160.089 107.209 158.286 109.012C156.483 110.815 155.582 112.992 155.582 115.543C155.582 118.095 156.483 120.272 158.286 122.075ZM31.5853 147.129C29.7824 145.326 28.8809 143.166 28.8809 140.648L28.8299 90.4892C28.898 87.9039 29.8164 85.7268 31.5853 83.9578C33.3883 82.1549 35.5484 81.2534 38.0657 81.2534L144.856 81.3045C147.408 81.2705 150.223 81.8913 153.301 83.1669C156.38 84.4426 158.821 85.9819 160.624 87.7848L181.851 109.012C183.62 110.781 184.504 112.958 184.504 115.543C184.504 118.129 183.62 120.306 181.851 122.075L160.624 143.302C158.821 145.105 156.38 146.644 153.301 147.919C150.223 149.195 147.391 149.833 144.805 149.833L38.1167 149.884C35.5314 149.816 33.3543 148.897 31.5853 147.129Z" fill="#FF6600"/>
<path d="M38.0658 80.8445C35.4508 80.8445 33.1661 81.798 31.2958 83.6683C29.4583 85.5058 28.4913 87.8022 28.4209 90.4782V90.4842L28.472 140.649C28.4722 143.263 29.4257 145.548 31.2958 147.418C33.1334 149.256 35.4296 150.223 38.1057 150.293H38.1118L144.806 150.242C147.458 150.242 150.342 149.589 153.458 148.297C156.574 147.007 159.062 145.442 160.913 143.591L182.14 122.364C183.979 120.524 184.913 118.222 184.913 115.543C184.913 112.865 183.979 110.562 182.14 108.723L160.913 87.4953C159.062 85.6442 156.574 84.0799 153.458 82.7889C150.341 81.4975 147.473 80.8603 144.851 80.8952L38.0658 80.8445ZM38.0658 81.6627L144.86 81.7133H144.862C147.343 81.6802 150.105 82.2848 153.145 83.5447C156.187 84.8051 158.58 86.3195 160.335 88.0742L181.562 109.301C183.26 110.999 184.095 113.051 184.095 115.543C184.095 118.035 183.26 120.087 181.562 121.785L160.335 143.012C158.58 144.767 156.187 146.281 153.145 147.541C150.104 148.802 147.324 149.423 144.806 149.423L38.1234 149.475C35.6311 149.408 33.5746 148.539 31.8754 146.839C30.1398 145.104 29.2908 143.068 29.2908 140.648L29.2396 90.5001C29.3053 88.0055 30.1751 85.9471 31.8754 84.2468C33.6109 82.5113 35.6465 81.6628 38.0659 81.6627H38.0658ZM164.818 105.898C162.17 105.898 159.869 106.851 157.998 108.722C156.126 110.594 155.173 112.895 155.173 115.543C155.173 118.191 156.126 120.493 157.998 122.364C159.869 124.235 162.17 125.188 164.818 125.188C167.466 125.188 169.768 124.235 171.639 122.364C173.51 120.493 174.463 118.191 174.463 115.543C174.463 112.895 173.51 110.594 171.639 108.722C169.768 106.851 167.466 105.898 164.818 105.898ZM164.818 106.716C167.273 106.716 169.326 107.566 171.06 109.301C172.795 111.036 173.645 113.088 173.645 115.543C173.645 117.998 172.795 120.05 171.06 121.785C169.326 123.52 167.273 124.37 164.818 124.37C162.363 124.37 160.311 123.52 158.576 121.785C156.841 120.05 155.991 117.998 155.991 115.543C155.991 113.088 156.841 111.036 158.576 109.301C160.311 107.566 162.363 106.716 164.818 106.716Z" fill="white"/>
<path d="M35.8269 95.4286V124.628H35.9632H37.2566V106.501H46.3204V105.071H37.2566V95.4286H35.8269ZM36.0996 95.7013H36.9839V105.344H46.0477V106.228H36.9839V124.355H36.0996V95.7013Z" fill="white"/>
<path d="M56.9802 105.071C51.5839 105.071 47.202 109.453 47.202 114.849C47.202 120.245 51.5839 124.628 56.9802 124.628C60.5253 124.628 63.5935 122.728 65.3291 119.905V124.628H65.4655H66.7588V114.849C66.7588 109.453 62.3764 105.071 56.9802 105.071ZM56.9802 105.344C62.2289 105.344 66.4861 109.6 66.4861 114.849V124.355H65.6018V119.439L65.3461 119.373C63.7104 122.34 60.5935 124.355 56.9802 124.355C51.7315 124.355 47.4748 120.098 47.4748 114.849C47.4748 109.6 51.7315 105.344 56.9802 105.344ZM56.9802 106.228C52.239 106.228 48.3591 110.108 48.3591 114.849C48.3591 119.59 52.239 123.471 56.9802 123.471C61.7213 123.471 65.6018 119.59 65.6018 114.849C65.6018 110.108 61.7213 106.228 56.9802 106.228ZM56.9802 106.501C61.5726 106.501 65.3291 110.257 65.3291 114.849C65.3291 119.441 61.5726 123.198 56.9802 123.198C52.3877 123.198 48.6318 119.441 48.6318 114.849C48.6318 110.257 52.3877 106.501 56.9802 106.501Z" fill="white"/>
<path d="M80.1065 105.071C74.7103 105.071 70.3279 109.453 70.3279 114.849C70.3279 120.245 74.7103 124.628 80.1065 124.628C83.6487 124.628 86.7488 122.732 88.4555 119.911V124.491C88.4555 129.084 84.699 132.84 80.1065 132.84C77.7911 132.84 75.6666 131.891 74.1489 130.336L74.0525 130.237L73.0494 131.24L73.1437 131.336C74.9037 133.136 77.3691 134.27 80.1065 134.27C85.5028 134.27 89.8852 129.888 89.8852 124.491V105.071H88.4555V109.787C86.7488 106.967 83.6487 105.071 80.1065 105.071ZM80.1065 105.344C83.7198 105.344 86.8748 107.359 88.4714 110.324L88.7282 110.259V105.344H89.6125V124.491C89.6125 129.74 85.3552 133.997 80.1065 133.997C77.4934 133.997 75.1462 132.927 73.442 131.233L74.0594 130.616C75.62 132.164 77.7659 133.113 80.1065 133.113C84.8477 133.113 88.7282 129.233 88.7282 124.491V119.439L88.4714 119.374C86.8748 122.339 83.7198 124.355 80.1065 124.355C74.8579 124.355 70.6006 120.098 70.6006 114.849C70.6006 109.6 74.8579 105.344 80.1065 105.344ZM80.1065 106.228C75.3654 106.228 71.4849 110.108 71.4849 114.849C71.4849 119.59 75.3654 123.471 80.1065 123.471C84.7301 123.471 88.7282 119.782 88.7282 114.849C88.7282 110.108 84.8477 106.228 80.1065 106.228ZM80.1065 106.501C84.699 106.501 88.4555 110.257 88.4555 114.849C88.4555 119.635 84.5852 123.198 80.1065 123.198C75.5141 123.198 71.7576 119.441 71.7576 114.849C71.7576 110.257 75.5141 106.501 80.1065 106.501Z" fill="white"/>
<path d="M93.4542 121.655V124.628H94.884V121.655H94.7476H93.4542ZM93.727 121.928H94.6112V124.355H93.727V121.928Z" fill="white"/>
<path d="M108.28 105.071C102.883 105.071 98.501 109.453 98.501 114.849C98.501 120.245 102.883 124.628 108.28 124.628C111.016 124.628 113.444 123.532 115.204 121.733L115.303 121.631L114.253 120.678L114.162 120.769C112.644 122.287 110.557 123.198 108.28 123.198C103.928 123.198 100.331 119.819 99.9552 115.564H118.058V115.428V114.849C118.058 109.453 113.676 105.071 108.28 105.071ZM108.28 105.344C113.528 105.344 117.786 109.6 117.786 114.849V115.291H99.6484L99.6585 115.437C99.972 119.905 103.734 123.471 108.28 123.471C110.583 123.471 112.693 122.558 114.253 121.046L114.899 121.634C113.197 123.322 110.891 124.355 108.28 124.355C103.031 124.355 98.7737 120.098 98.7737 114.849C98.7737 109.6 103.031 105.344 108.28 105.344H108.28ZM108.28 106.228C103.734 106.228 99.9721 109.793 99.6585 114.261L99.6484 114.407H116.873L116.862 114.261C116.549 109.794 112.825 106.228 108.28 106.228H108.28ZM108.28 106.501C112.631 106.501 116.19 109.878 116.566 114.134H99.9552C100.331 109.879 103.928 106.501 108.28 106.501Z" fill="white"/>
<path d="M121.627 105.071V124.628H123.057V114.849C123.057 112.622 123.782 110.527 124.925 108.996C126.068 107.464 127.621 106.501 129.285 106.501C132.582 106.501 135.512 110.045 135.512 114.849V124.628H136.942V114.849C136.942 112.447 137.667 110.354 138.808 108.867C139.95 107.38 141.501 106.501 143.169 106.501C144.875 106.501 146.426 107.427 147.558 108.938C148.691 110.45 149.397 112.543 149.397 114.849V124.628H149.533H150.826V114.849C150.826 112.159 149.979 109.72 148.599 107.949C147.219 106.177 145.299 105.071 143.169 105.071C140.04 105.071 137.418 107.441 136.225 110.777C134.998 107.441 132.378 105.071 129.285 105.071C126.675 105.071 124.422 106.759 123.057 109.252V105.071H121.627ZM121.9 105.344H122.784V109.72L123.043 109.779C124.337 107.116 126.646 105.344 129.285 105.344C132.337 105.344 134.954 107.76 136.097 111.19L136.229 111.585L136.357 111.188C137.462 107.759 140.078 105.344 143.169 105.344C145.205 105.344 147.045 106.397 148.384 108.116C149.723 109.834 150.554 112.216 150.554 114.849V124.355H149.669V114.849C149.669 112.488 148.949 110.339 147.777 108.775C146.605 107.21 144.974 106.228 143.169 106.228C141.405 106.228 139.775 107.161 138.592 108.701C137.41 110.242 136.669 112.392 136.669 114.849V124.355H135.785V114.849C135.785 109.934 132.776 106.228 129.285 106.228C127.516 106.228 125.887 107.25 124.706 108.833C123.525 110.416 122.784 112.563 122.784 114.849V124.355H121.9V105.344Z" fill="white"/>
<path d="M35.9648 124.493H37.1218V106.365H46.1855V105.208H37.1218V95.5662H35.9648V124.493Z" fill="white"/>
<path d="M65.4655 124.491H66.6226V114.849C66.6226 109.527 62.3029 105.207 56.9804 105.207C51.6579 105.207 47.3382 109.527 47.3382 114.849C47.3382 120.172 51.6579 124.491 56.9804 124.491C60.6444 124.491 63.8071 122.447 65.4655 119.439V124.491ZM48.4953 114.849C48.4953 110.182 52.3136 106.364 56.9804 106.364C61.6472 106.364 65.4655 110.182 65.4655 114.849C65.4655 119.516 61.6472 123.334 56.9804 123.334C52.3136 123.334 48.4953 119.516 48.4953 114.849Z" fill="white"/>
<path d="M73.2413 131.241C74.9769 133.015 77.4067 134.134 80.1066 134.134C85.429 134.134 89.7487 129.814 89.7487 124.491V105.207H88.5917V110.26C86.9718 107.251 83.7706 105.207 80.1066 105.207C74.7841 105.207 70.4644 109.527 70.4644 114.849C70.4644 120.172 74.7841 124.491 80.1066 124.491C83.7706 124.491 86.9718 122.447 88.5917 119.439V124.491C88.5917 129.158 84.7733 132.977 80.1066 132.977C77.7539 132.977 75.594 132.012 74.0513 130.431L73.2413 131.241ZM88.5917 114.849C88.5917 119.709 84.6577 123.334 80.1066 123.334C75.4397 123.334 71.6214 119.516 71.6214 114.849C71.6214 110.182 75.4397 106.364 80.1066 106.364C84.7733 106.364 88.5917 110.182 88.5917 114.849Z" fill="white"/>
<path d="M94.7475 121.792H93.5904V124.491H94.7475V121.792Z" fill="white"/>
<path d="M117.922 115.428V114.849C117.922 109.527 113.602 105.207 108.28 105.207C102.957 105.207 98.6375 109.527 98.6375 114.849C98.6375 120.172 102.957 124.491 108.28 124.491C110.979 124.491 113.371 123.411 115.106 121.637L114.258 120.866C112.715 122.409 110.594 123.334 108.28 123.334C103.806 123.334 100.103 119.825 99.7946 115.428H117.922ZM108.28 106.364C112.754 106.364 116.418 109.874 116.726 114.271H99.7946C100.103 109.874 103.806 106.364 108.28 106.364Z" fill="white"/>
<path d="M149.533 124.491H150.69V114.849C150.69 109.527 147.335 105.207 143.169 105.207C140.007 105.207 137.345 107.675 136.227 111.147C135.07 107.675 132.409 105.207 129.285 105.207C126.585 105.207 124.232 107.02 122.921 109.72V105.207H121.764V124.491H122.921V114.849C122.921 110.337 125.852 106.364 129.285 106.364C132.679 106.364 135.648 109.99 135.648 114.849V124.491H136.805V114.849C136.805 109.99 139.737 106.364 143.169 106.364C146.679 106.364 149.533 110.182 149.533 114.849V124.491Z" fill="white"/>
</svg>
