<svg width="381" height="42" viewBox="0 0 381 42" fill="none" xmlns="http://www.w3.org/2000/svg">
<path d="M207.632 3.68389C207.479 3.68603 207.326 3.73427 207.198 3.82922L203.405 6.65332C203.113 6.87086 203.025 7.2792 203.201 7.59625L205.882 12.4039L205.421 13.1348C204.732 14.2245 204.206 15.452 203.887 16.7255L203.677 17.5629L198.302 18.9993C197.95 19.0934 197.712 19.4424 197.756 19.8025L198.334 24.4626C198.38 24.8241 198.696 25.1028 199.058 25.1083L204.593 25.2028L205.004 25.9635C205.312 26.5355 205.677 27.097 206.085 27.6321C206.489 28.1642 206.928 28.6589 207.396 29.109L208.018 29.7076L206.592 35.0073C206.592 35.0073 206.592 35.0073 206.592 35.0073C206.499 35.3537 206.684 35.7332 207.025 35.8784L208.93 36.6796C209.474 35.1697 210.008 33.6546 210.533 32.132C210.995 30.7147 211.415 29.2811 211.817 27.8402C210.77 27.2416 209.822 26.4323 209.052 25.4216C205.984 21.3908 206.807 15.6087 210.883 12.5735C212.335 11.4926 214.016 10.904 215.711 10.769C215.93 9.52828 216.124 8.29023 216.282 7.05409C215.121 7.06746 214.004 7.22526 212.941 7.53009L212.101 7.77127L208.169 3.8935C208.04 3.7669 207.87 3.69601 207.696 3.68398C207.673 3.68188 207.651 3.68188 207.63 3.68188L207.632 3.68389Z" fill="#AA0000"/>
<path d="M222.77 5.86083e-05C222.595 -0.0020812 222.42 0.0544362 222.284 0.159198C222.216 0.212247 222.158 0.275566 222.111 0.352688L222.008 0.521197C222.004 0.608572 221.999 0.691932 221.99 0.781537C221.767 3.61669 221.305 6.39286 220.781 9.12985C222.555 9.68723 224.18 10.7736 225.379 12.348C228.448 16.3789 227.624 22.1609 223.548 25.1959C221.482 26.7349 218.958 27.2868 216.577 26.9305C216.328 27.7797 216.073 28.628 215.802 29.4734L215.797 29.4868L215.793 29.5001C215.106 31.517 214.409 33.5422 213.668 35.5601C213.729 35.5102 213.783 35.4513 213.826 35.3822L216.688 30.6856L217.558 30.7123C218.931 30.7574 220.246 30.5982 221.487 30.2419L222.328 30.0007L226.258 33.8766C226.517 34.1307 226.941 34.1606 227.234 33.9431L231.026 31.1189C231.318 30.9013 231.407 30.4924 231.23 30.1753L228.549 25.3677L229.011 24.6369C229.699 23.5473 230.225 22.3198 230.544 21.0462L230.755 20.2087L236.129 18.7724C236.49 18.6761 236.721 18.3333 236.676 17.9734L236.097 13.3098C236.052 12.9483 235.736 12.6691 235.374 12.6635H235.373L229.838 12.5695L229.427 11.8087C229.118 11.2366 228.753 10.6752 228.346 10.1401C227.941 9.60793 227.503 9.11318 227.035 8.66306L226.413 8.06433L227.839 2.76487C227.932 2.41805 227.747 2.03894 227.406 1.8941L223.039 0.0589832C222.976 0.0322356 222.91 0.0144151 222.843 0.00772816H222.842C222.815 0.00558835 222.792 0.00349375 222.767 0.00349375L222.77 5.86083e-05Z" fill="#D45500"/>
<path d="M256.996 29.578V33.6129H250.228C248.961 33.6129 247.956 33.5976 247.214 33.567C246.503 33.5059 245.607 33.3225 244.526 33.0168C243.444 32.6806 242.532 32.1915 241.79 31.5496C240.646 30.5103 239.905 29.2723 239.565 27.8357C239.225 26.3685 239.055 24.6567 239.055 22.7004V1.51733H243.413V22.6087C243.413 24.3816 243.614 25.7724 244.015 26.7811C244.819 28.6457 246.504 29.578 249.069 29.578H256.996Z" fill="black"/>
<path d="M279.408 33.6126H271.388C267.957 33.6126 265.5 33.1083 264.016 32.0996C262.687 31.2131 261.837 30.1585 261.466 28.9358C261.127 27.6826 260.956 26.0473 260.956 24.0298V11.6042H265.036V23.984C265.036 24.5342 265.052 25.008 265.083 25.4053C265.114 25.7721 265.222 26.2612 265.407 26.8726C265.593 27.4533 265.855 27.9424 266.195 28.3398C266.535 28.7066 267.03 29.0428 267.679 29.3485C268.328 29.6236 269.116 29.7612 270.043 29.7612H275.328V11.6043H279.408L279.408 33.6126Z" fill="black"/>
<path d="M302.609 1.51733H306.782V33.6129H295.887C292.518 33.6129 289.782 32.5583 287.681 30.4492C285.579 28.3095 284.528 25.6196 284.528 22.3794C284.528 19.2005 285.61 16.5411 287.773 14.4014C289.968 12.2311 292.564 11.146 295.562 11.146C297.479 11.146 299.271 11.6045 300.94 12.5215V16.6481C299.395 15.5477 297.602 14.9975 295.562 14.9975C293.708 14.9975 292.131 15.6852 290.833 17.0608C289.566 18.4057 288.932 20.1786 288.932 22.3794C288.932 24.6109 289.535 26.399 290.741 27.744C291.977 29.089 293.692 29.7614 295.887 29.7614H302.609V1.51733Z" fill="black"/>
<path d="M318.415 33.6131H314.335V15.4562H310.534L312.388 11.6047H318.415V33.6131ZM314.15 7.01964C313.748 6.5 313.547 5.93452 313.547 5.32317C313.547 4.71183 313.748 4.16161 314.15 3.67254C314.552 3.15289 315.17 2.89307 316.004 2.89307C316.839 2.89307 317.457 3.15289 317.859 3.67254C318.26 4.16161 318.461 4.71183 318.461 5.32317C318.461 5.93452 318.26 6.5 317.859 7.01964C317.457 7.50872 316.839 7.75327 316.004 7.75327C315.17 7.75327 314.552 7.50872 314.15 7.01964Z" fill="black"/>
<path d="M322.294 15.4558L330.593 7.24854V11.6044H336.852V15.4558H330.593V24.9011C330.593 25.971 330.763 26.8574 331.103 27.5604C331.474 28.2635 331.999 28.7679 332.679 29.0735C333.359 29.3486 333.993 29.532 334.58 29.6237C335.198 29.7155 335.955 29.7613 336.852 29.7613V33.6128C333.297 33.6128 330.67 32.9403 328.97 31.5953C327.27 30.2504 326.421 28.019 326.421 24.9011V15.4559L322.294 15.4558Z" fill="black"/>
<path d="M353.651 20.6827V24.8093C352.477 23.9228 351.04 23.4796 349.34 23.4796C347.887 23.4796 346.759 23.77 345.956 24.3508C345.152 24.901 344.75 25.6957 344.75 26.735C344.75 28.7525 346.265 29.7612 349.294 29.7612H355.413V21.0037C355.413 17.305 353.59 15.4557 349.943 15.4557H342.525V11.6042H350.174C353.172 11.6042 355.475 12.3379 357.082 13.8051C358.689 15.2723 359.493 17.3815 359.493 20.1325V33.6126H349.154C346.527 33.6126 344.441 33.0319 342.896 31.8703C341.35 30.7088 340.578 29.0123 340.578 26.7809C340.578 24.5495 341.397 22.853 343.035 21.6914C344.673 20.5299 346.728 19.9491 349.201 19.9491C350.592 19.9491 352.075 20.1936 353.651 20.6827Z" fill="black"/>
<path d="M380.073 11.6042V15.4557H371.867C370.971 15.4557 370.198 15.6238 369.549 15.9601C368.9 16.2963 368.576 16.7701 368.576 17.3815C368.576 17.7483 368.653 18.0845 368.807 18.3902C368.962 18.6653 369.132 18.8945 369.317 19.0779C369.533 19.2613 369.843 19.46 370.244 19.674C370.677 19.8574 371.002 19.995 371.218 20.0867C371.465 20.1478 372.454 20.4535 374.185 21.0037C375.916 21.5539 377.199 22.0124 378.033 22.3792C378.868 22.746 379.501 23.2504 379.934 23.8923C380.397 24.5036 380.691 25.115 380.815 25.7263C380.938 26.3071 381 26.8879 381 27.4687C381 31.5647 378.157 33.6127 372.47 33.6127H364.449V29.7612H372.47C375.375 29.7612 376.828 28.997 376.828 27.4687C376.828 26.735 376.395 26.1237 375.529 25.6346C374.695 25.1455 373.659 24.7329 372.423 24.3967C371.218 24.0604 369.997 23.6783 368.761 23.2504C367.555 22.7919 366.52 22.0735 365.654 21.0954C364.82 20.0867 364.403 18.8487 364.403 17.3815C364.403 15.5169 365.129 14.0955 366.582 13.1173C368.034 12.1086 369.796 11.6043 371.867 11.6043L380.073 11.6042Z" fill="black"/>
<path d="M12.9313 33.7803V32.794H1.56239L11.6683 19.3472C13.7958 16.5527 13.1973 12.5417 10.3384 10.4376C7.44624 8.26769 3.39064 8.89235 1.29635 11.7527C0.465301 12.8376 0.0332204 14.1198 0 15.3691H0.964011C0.995564 14.3171 1.36278 13.265 2.0609 12.3444C3.85598 9.91154 7.31347 9.41839 9.70696 11.1937C12.2002 12.9362 12.6988 16.4212 10.8704 18.7555L0.332342 32.794V33.7803H12.9313Z" fill="black"/>
<path d="M22.7792 9.1228C19.189 9.1228 16.2968 11.9831 16.2968 15.5338V27.3696C16.2968 30.9203 19.189 33.7806 22.7792 33.7806C26.3694 33.7806 29.2615 30.9203 29.2615 27.3696V15.5338C29.2615 11.9831 26.3694 9.1228 22.7792 9.1228ZM17.2939 15.5338C17.2939 12.542 19.7541 10.1091 22.7792 10.1091C25.8042 10.1091 28.2642 12.542 28.2642 15.5338V27.3696C28.2642 30.3614 25.8042 32.7943 22.7792 32.7943C19.7541 32.7943 17.2939 30.3614 17.2939 27.3696V15.5338Z" fill="black"/>
<path d="M45.5252 33.7803V32.794H34.156L44.2619 19.3472C46.3895 16.5527 45.7912 12.5417 42.9323 10.4376C40.0401 8.26769 35.9843 8.89235 33.89 11.7527C33.0589 12.8376 32.6269 14.1198 32.5936 15.3691H33.5576C33.5892 14.3171 33.9567 13.265 34.6548 12.3444C36.4499 9.91154 39.9071 9.41839 42.3006 11.1937C44.7938 12.9362 45.2924 16.4212 43.4641 18.7555L32.926 32.794V33.7803H45.5252Z" fill="black"/>
<path d="M55.3728 9.1228C51.7826 9.1228 48.8905 11.9831 48.8905 15.5338V27.3696C48.8905 30.9203 51.7826 33.7806 55.3728 33.7806C58.963 33.7806 61.8551 30.9203 61.8551 27.3696V15.5338C61.8551 11.9831 58.963 9.1228 55.3728 9.1228ZM49.8878 15.5338C49.8878 12.542 52.3477 10.1091 55.3728 10.1091C58.3979 10.1091 60.8578 12.542 60.8578 15.5338V27.3696C60.8578 30.3614 58.3979 32.7943 55.3728 32.7943C52.3477 32.7943 49.8878 30.3614 49.8878 27.3696V15.5338Z" fill="black"/>
<path d="M73.4976 33.7806H74.4949V18.3284H82.3068V17.3421H74.4949V9.1228H73.4976V33.7806Z" fill="black"/>
<path d="M98.9259 33.7806H99.9232V25.5613C99.9232 21.0243 96.1999 17.342 91.6124 17.342C87.0249 17.342 83.3017 21.0243 83.3017 25.5613C83.3017 30.0983 87.0249 33.7806 91.6124 33.7806C94.7705 33.7806 97.4964 32.0381 98.9259 29.4737V33.7806ZM84.299 25.5613C84.299 21.5832 87.59 18.3284 91.6124 18.3284C95.6348 18.3284 98.9259 21.5832 98.9259 25.5613C98.9259 29.5394 95.6348 32.7942 91.6124 32.7942C87.59 32.7942 84.299 29.5394 84.299 25.5613Z" fill="black"/>
<path d="M105.628 39.534C107.124 41.0464 109.218 41.9998 111.545 41.9998C116.132 41.9998 119.856 38.3176 119.856 33.7806V17.342H118.858V21.6489C117.462 19.0845 114.703 17.342 111.545 17.342C106.957 17.342 103.234 21.0243 103.234 25.5613C103.234 30.0983 106.957 33.7806 111.545 33.7806C114.703 33.7806 117.462 32.0381 118.858 29.4737V33.7806C118.858 37.7587 115.567 41.0135 111.545 41.0135C109.517 41.0135 107.656 40.1916 106.326 38.8436L105.628 39.534ZM118.858 25.5613C118.858 29.7038 115.468 32.7942 111.545 32.7942C107.523 32.7942 104.232 29.5394 104.232 25.5613C104.232 21.5832 107.523 18.3284 111.545 18.3284C115.567 18.3284 118.858 21.5832 118.858 25.5613Z" fill="black"/>
<path d="M124.164 31.479H123.167V33.7804H124.164V31.479Z" fill="black"/>
<path d="M144.138 26.0545V25.5613C144.138 21.0243 140.415 17.342 135.828 17.342C131.24 17.342 127.517 21.0243 127.517 25.5613C127.517 30.0983 131.24 33.7806 135.828 33.7806C138.155 33.7806 140.216 32.86 141.712 31.3477L140.98 30.6901C139.651 32.0052 137.822 32.7942 135.828 32.7942C131.971 32.7942 128.78 29.8024 128.514 26.0545H144.138ZM135.828 18.3284C139.684 18.3284 142.842 21.3202 143.108 25.0681H128.514C128.78 21.3202 131.971 18.3284 135.828 18.3284Z" fill="black"/>
<path d="M171.385 33.7806H172.382V25.5613C172.382 21.0243 169.49 17.342 165.9 17.342C163.174 17.342 160.88 19.4462 159.916 22.4051C158.918 19.4462 156.625 17.342 153.932 17.342C151.605 17.342 149.577 18.8873 148.447 21.1887V17.342H147.45V33.7806H148.447V25.5613C148.447 21.7147 150.974 18.3284 153.932 18.3284C156.858 18.3284 159.417 21.4188 159.417 25.5613V33.7806H160.415V25.5613C160.415 21.4188 162.941 18.3284 165.9 18.3284C168.925 18.3284 171.385 21.5832 171.385 25.5613V33.7806Z" fill="black"/>
<path d="M174.4 28.52H176.136V33.7803H176.358V28.52H178.094V28.3008H174.4V28.52Z" fill="black"/>
<path d="M185.353 28.3008H184.614L182.088 32.6552L179.568 28.3008H178.83V33.7803H179.051V28.52H179.428L181.955 32.889H182.221L184.755 28.52H185.131V33.7803H185.353L185.353 28.3008Z" fill="black"/>
</svg>
