<svg width="375" height="75" viewBox="0 0 375 75" fill="none" xmlns="http://www.w3.org/2000/svg">
<path d="M23.9735 7.51804C23.6632 7.52241 23.3537 7.62085 23.0945 7.81463L15.4157 13.5781C14.8243 14.0221 14.6455 14.8554 15.0024 15.5024L20.4308 25.314L19.496 26.8056C18.1017 29.0294 17.0376 31.5345 16.3905 34.1336L15.9655 35.8425L5.08255 38.774C4.37068 38.966 3.8883 39.6783 3.97738 40.4131L5.14828 49.9236C5.23955 50.6614 5.87933 51.23 6.61219 51.2413L17.8205 51.4342L18.6516 52.9865C19.2767 54.154 20.0155 55.2999 20.8402 56.3919C21.6597 57.4778 22.5479 58.4874 23.495 59.406L24.7551 60.6277L21.8668 71.4434C21.8668 71.4434 21.8669 71.4434 21.8668 71.4434C21.6788 72.1503 22.0538 72.9248 22.7447 73.221L26.6011 74.8562C27.7027 71.7747 28.7848 68.6827 29.8465 65.5754C30.7823 62.6829 31.6328 59.7573 32.4473 56.8166C30.3262 55.595 28.4068 53.9433 26.849 51.8808C20.6356 43.6546 22.3038 31.8543 30.5567 25.6602C33.4956 23.4542 36.8994 22.2529 40.3306 21.9775C40.775 19.4454 41.167 16.9187 41.4881 14.396C39.1374 14.4233 36.8743 14.7453 34.7228 15.3674L33.021 15.8596L25.0603 7.94582C24.8002 7.68744 24.4561 7.54278 24.1028 7.51822C24.0571 7.51394 24.0116 7.51395 23.9697 7.51395L23.9735 7.51804Z" fill="#AA0000"/>
<path d="M54.6239 0.000119609C54.2689 -0.00424734 53.9155 0.111094 53.6407 0.324893C53.5011 0.433157 53.3842 0.562379 53.2892 0.719771L53.0815 1.06367C53.0723 1.24198 53.063 1.41211 53.0447 1.59497C52.5938 7.381 51.6568 13.0467 50.5965 18.6324C54.1874 19.7698 57.4795 21.9869 59.9064 25.2001C66.1198 33.4262 64.4522 45.2263 56.1998 51.4203C52.0152 54.5611 46.9064 55.6873 42.0838 54.9601C41.5809 56.6932 41.0646 58.4244 40.5146 60.1498L40.5057 60.1771L40.4973 60.2044C39.1064 64.3205 37.6956 68.4534 36.1947 72.5716C36.3188 72.4697 36.4281 72.3496 36.5139 72.2086L42.3088 62.6237L44.0702 62.6783C46.8507 62.7701 49.5134 62.4454 52.027 61.7182L53.7293 61.226L61.6861 69.136C62.2109 69.6546 63.0699 69.7155 63.6619 69.2716L71.3408 63.5079C71.9322 63.0639 72.1113 62.2295 71.7535 61.5823L66.3252 51.7709L67.2599 50.2794C68.6541 48.0556 69.7178 45.5505 70.3648 42.9514L70.7904 41.2423L81.6734 38.311C82.4026 38.1144 82.8703 37.4148 82.7791 36.6804L81.6076 27.1629C81.5164 26.4251 80.8765 25.8553 80.1437 25.8439H80.1421L68.9338 25.652L68.1021 24.0993C67.477 22.9319 66.7388 21.7861 65.9141 20.694C65.0945 19.608 64.2062 18.5983 63.2592 17.6797L61.9997 16.4578L64.8874 5.6426C65.0745 4.93479 64.7012 4.16109 64.0112 3.86551L55.1693 0.120374C55.0406 0.065787 54.9072 0.0294185 54.7721 0.0157718H54.7704C54.7157 0.0114048 54.6689 0.0071301 54.6178 0.0071301L54.6239 0.000119609Z" fill="#D45500"/>
<path d="M123.924 60.3632V68.5976H110.22C107.654 68.5976 105.62 68.5664 104.118 68.504C102.678 68.3792 100.864 68.0049 98.6738 67.3811C96.4835 66.6949 94.637 65.6968 93.1351 64.3868C90.8196 62.2658 89.3181 59.7393 88.6297 56.8073C87.9414 53.813 87.597 50.3196 87.597 46.3272V3.09644H96.4205V46.14C96.4205 49.7582 96.8275 52.5966 97.641 54.6552C99.268 58.4605 102.679 60.3632 107.873 60.3632H123.924Z" fill="black"/>
<path d="M169.302 68.5972H153.063C146.117 68.5972 141.141 67.5679 138.138 65.5093C135.447 63.7002 133.726 61.548 132.975 59.0528C132.287 56.4951 131.942 53.1577 131.942 49.0405V23.6822H140.203V48.9469C140.203 50.0698 140.234 51.0367 140.297 51.8476C140.359 52.5962 140.579 53.5944 140.954 54.842C141.329 56.0273 141.861 57.0254 142.549 57.8363C143.238 58.5849 144.239 59.2711 145.554 59.8949C146.868 60.4564 148.463 60.7371 150.341 60.7371H161.042V23.6822H169.303L169.302 68.5972Z" fill="black"/>
<path d="M216.278 3.09644H224.727V68.5976H202.667C195.846 68.5976 190.308 66.4454 186.052 62.1411C181.797 57.7743 179.67 52.2847 179.67 45.6722C179.67 39.1844 181.859 33.7572 186.24 29.3905C190.683 24.9613 195.94 22.7468 202.01 22.7468C205.89 22.7468 209.52 23.6825 212.899 25.554V33.9755C209.77 31.7298 206.141 30.6069 202.01 30.6069C198.256 30.6069 195.064 32.0105 192.435 34.8177C189.87 37.5625 188.587 41.1807 188.587 45.6722C188.587 50.2261 189.807 53.8754 192.248 56.6202C194.751 59.3651 198.224 60.7375 202.667 60.7375H216.278V3.09644Z" fill="black"/>
<path d="M248.281 68.5979H240.021V31.543H232.324L236.079 23.6828H248.281V68.5979ZM239.645 14.3255C238.832 13.265 238.425 12.111 238.425 10.8633C238.425 9.61569 238.832 8.4928 239.645 7.49469C240.459 6.43419 241.71 5.90393 243.4 5.90393C245.089 5.90393 246.341 6.43419 247.155 7.49469C247.968 8.4928 248.375 9.61569 248.375 10.8633C248.375 12.111 247.968 13.265 247.155 14.3255C246.341 15.3236 245.089 15.8227 243.4 15.8227C241.71 15.8227 240.459 15.3236 239.645 14.3255Z" fill="black"/>
<path d="M256.136 31.5426L272.938 14.793V23.6825H285.611V31.5426H272.938V50.8187C272.938 53.0021 273.282 54.8111 273.971 56.2459C274.722 57.6807 275.786 58.71 277.162 59.3338C278.539 59.8953 279.822 60.2696 281.011 60.4567C282.263 60.6439 283.796 60.7375 285.611 60.7375V68.5976C278.414 68.5976 273.095 67.2252 269.653 64.4804C266.211 61.7356 264.49 57.1817 264.49 50.8187V31.5427L256.136 31.5426Z" fill="black"/>
<path d="M319.626 42.2096V50.6312C317.248 48.8221 314.338 47.9176 310.896 47.9176C307.955 47.9176 305.671 48.5102 304.044 49.6955C302.417 50.8184 301.603 52.4403 301.603 54.5613C301.603 58.6785 304.67 60.7371 310.802 60.7371H323.193V42.8646C323.193 35.3164 319.501 31.5423 312.117 31.5423H297.098V23.6822H312.586C318.656 23.6822 323.318 25.1793 326.572 28.1737C329.826 31.168 331.454 35.4724 331.454 41.0867V68.5972H310.521C305.201 68.5972 300.977 67.412 297.848 65.0415C294.719 62.6709 293.155 59.2087 293.155 54.6549C293.155 50.101 294.814 46.6387 298.13 44.2682C301.447 41.8977 305.608 40.7125 310.615 40.7125C313.431 40.7125 316.434 41.2115 319.626 42.2096Z" fill="black"/>
<path d="M373.123 23.6822V31.5423H356.508C354.693 31.5423 353.129 31.8854 351.815 32.5716C350.5 33.2578 349.844 34.2247 349.844 35.4724C349.844 36.221 350 36.9072 350.313 37.531C350.626 38.0924 350.969 38.5603 351.345 38.9346C351.783 39.3089 352.409 39.7143 353.223 40.151C354.099 40.5253 354.756 40.8061 355.194 40.9932C355.694 41.118 357.697 41.7418 361.201 42.8647C364.706 43.9876 367.303 44.9233 368.993 45.6719C370.682 46.4205 371.965 47.4498 372.841 48.7598C373.78 50.0074 374.375 51.2551 374.625 52.5027C374.875 53.688 375 54.8732 375 56.0585C375 64.4177 369.243 68.5973 357.728 68.5973H341.489V60.7371H357.728C363.611 60.7371 366.552 59.1776 366.552 56.0585C366.552 54.5613 365.675 53.3137 363.923 52.3156C362.233 51.3174 360.137 50.4753 357.634 49.7891C355.193 49.1029 352.722 48.3231 350.219 47.4498C347.778 46.514 345.681 45.048 343.929 43.0518C342.24 40.9932 341.395 38.4668 341.395 35.4724C341.395 31.6671 342.865 28.7663 345.806 26.7701C348.748 24.7115 352.315 23.6822 356.508 23.6822L373.123 23.6822Z" fill="black"/>
</svg>
