<svg width="184" height="37" viewBox="0 0 184 37" fill="none" xmlns="http://www.w3.org/2000/svg">
<path d="M10.6321 3.68389C10.4788 3.68603 10.326 3.73427 10.1979 3.82922L6.40546 6.65332C6.11337 6.87086 6.02508 7.2792 6.20132 7.59625L8.88234 12.4039L8.42069 13.1348C7.73203 14.2245 7.2065 15.452 6.88691 16.7255L6.677 17.5629L1.30204 18.9993C0.950449 19.0934 0.712209 19.4424 0.756203 19.8025L1.3345 24.4626C1.37957 24.8241 1.69555 25.1028 2.05751 25.1083L7.59314 25.2028L8.00362 25.9635C8.31238 26.5355 8.67725 27.097 9.08455 27.6321C9.48933 28.1642 9.92797 28.6589 10.3958 29.109L11.0181 29.7076L9.59159 35.0073C9.59159 35.0073 9.59164 35.0073 9.59159 35.0073C9.49874 35.3537 9.68396 35.7332 10.0252 35.8784L11.9298 36.6796C12.4739 35.1697 13.0083 33.6546 13.5326 32.132C13.9948 30.7147 14.4149 29.2811 14.8172 27.8402C13.7696 27.2416 12.8216 26.4323 12.0522 25.4216C8.98352 21.3908 9.8074 15.6087 13.8834 12.5735C15.3349 11.4926 17.016 10.904 18.7106 10.769C18.9301 9.52828 19.1237 8.29023 19.2823 7.05409C18.1213 7.06746 17.0036 7.22526 15.941 7.53009L15.1005 7.77127L11.1688 3.8935C11.0404 3.7669 10.8704 3.69601 10.6959 3.68398C10.6734 3.68188 10.6509 3.68188 10.6302 3.68188L10.6321 3.68389Z" fill="#AA0000"/>
<path d="M25.7701 5.86083e-05C25.5947 -0.0020812 25.4202 0.0544362 25.2845 0.159198C25.2155 0.212247 25.1578 0.275566 25.1109 0.352688L25.0083 0.521197C25.0038 0.608572 24.9991 0.691932 24.9901 0.781537C24.7674 3.61669 24.3047 6.39286 23.781 9.12985C25.5545 9.68723 27.1804 10.7736 28.379 12.348C31.4478 16.3789 30.6242 22.1609 26.5484 25.1959C24.4816 26.7349 21.9585 27.2868 19.5766 26.9305C19.3283 27.7797 19.0733 28.628 18.8016 29.4734L18.7972 29.4868L18.7931 29.5001C18.1062 31.517 17.4094 33.5422 16.6681 35.5601C16.7294 35.5102 16.7834 35.4513 16.8257 35.3822L19.6878 30.6856L20.5577 30.7123C21.931 30.7574 23.2461 30.5982 24.4875 30.2419L25.3282 30.0007L29.258 33.8766C29.5172 34.1307 29.9415 34.1606 30.2339 33.9431L34.0263 31.1189C34.3184 30.9013 34.4069 30.4924 34.2302 30.1753L31.5492 25.3677L32.0108 24.6369C32.6995 23.5473 33.2248 22.3198 33.5443 21.0462L33.7545 20.2087L39.1295 18.7724C39.4896 18.6761 39.7206 18.3333 39.6756 17.9734L39.097 13.3098C39.052 12.9483 38.7359 12.6691 38.374 12.6635H38.3732L32.8376 12.5695L32.4268 11.8087C32.118 11.2366 31.7535 10.6752 31.3462 10.1401C30.9414 9.60793 30.5026 9.11318 30.0349 8.66306L29.4129 8.06433L30.8391 2.76487C30.9315 2.41805 30.7471 2.03894 30.4064 1.8941L26.0394 0.0589832C25.9759 0.0322356 25.91 0.0144151 25.8433 0.00772816H25.8424C25.8154 0.00558835 25.7923 0.00349375 25.767 0.00349375L25.7701 5.86083e-05Z" fill="#D45500"/>
<path d="M59.9963 29.578V33.6129H53.2279C51.9607 33.6129 50.956 33.5976 50.2142 33.567C49.5034 33.5059 48.6073 33.3225 47.5255 33.0168C46.4437 32.6806 45.5318 32.1915 44.79 31.5496C43.6464 30.5103 42.9048 29.2723 42.5649 27.8357C42.2249 26.3685 42.0548 24.6567 42.0548 22.7004V1.51733H46.4127V22.6087C46.4127 24.3816 46.6136 25.7724 47.0154 26.7811C47.819 28.6457 49.5035 29.578 52.0688 29.578H59.9963Z" fill="black"/>
<path d="M82.408 33.6126H74.3878C70.9571 33.6126 68.4998 33.1083 67.0163 32.0996C65.6872 31.2131 64.8374 30.1585 64.4665 28.9358C64.1265 27.6826 63.9564 26.0473 63.9564 24.0298V11.6042H68.0361V23.984C68.0361 24.5342 68.0517 25.008 68.0826 25.4053C68.1136 25.7721 68.2219 26.2612 68.4073 26.8726C68.5927 27.4533 68.8552 27.9424 69.1952 28.3398C69.5352 28.7066 70.0299 29.0428 70.6789 29.3485C71.328 29.6236 72.116 29.7612 73.0433 29.7612H78.3283V11.6043H82.4083L82.408 33.6126Z" fill="black"/>
<path d="M105.609 1.51733H109.782V33.6129H98.8866C95.5177 33.6129 92.7824 32.5583 90.6807 30.4492C88.579 28.3095 87.5284 25.6196 87.5284 22.3794C87.5284 19.2005 88.6099 16.5411 90.7734 14.4014C92.9678 12.2311 95.5642 11.146 98.5622 11.146C100.479 11.146 102.271 11.6045 103.94 12.5215V16.6481C102.395 15.5477 100.602 14.9975 98.5622 14.9975C96.7078 14.9975 95.1314 15.6852 93.8332 17.0608C92.566 18.4057 91.9325 20.1786 91.9325 22.3794C91.9325 24.6109 92.5351 26.399 93.7405 27.744C94.9768 29.089 96.6922 29.7614 98.8866 29.7614H105.609V1.51733Z" fill="black"/>
<path d="M121.415 33.6131H117.335V15.4562H113.534L115.388 11.6047H121.415V33.6131ZM117.15 7.01964C116.748 6.5 116.547 5.93452 116.547 5.32317C116.547 4.71183 116.748 4.16161 117.15 3.67254C117.552 3.15289 118.17 2.89307 119.004 2.89307C119.839 2.89307 120.457 3.15289 120.859 3.67254C121.26 4.16161 121.461 4.71183 121.461 5.32317C121.461 5.93452 121.26 6.5 120.859 7.01964C120.457 7.50872 119.839 7.75327 119.004 7.75327C118.17 7.75327 117.552 7.50872 117.15 7.01964Z" fill="black"/>
<path d="M125.294 15.4558L133.593 7.24854V11.6044H139.852V15.4558H133.593V24.9011C133.593 25.971 133.763 26.8574 134.103 27.5604C134.474 28.2635 134.999 28.7679 135.679 29.0735C136.359 29.3486 136.993 29.532 137.58 29.6237C138.198 29.7155 138.955 29.7613 139.852 29.7613V33.6128C136.297 33.6128 133.67 32.9403 131.97 31.5953C130.27 30.2504 129.421 28.019 129.421 24.9011V15.4559L125.294 15.4558Z" fill="black"/>
<path d="M156.651 20.6827V24.8093C155.477 23.9228 154.04 23.4796 152.34 23.4796C150.887 23.4796 149.759 23.77 148.956 24.3508C148.152 24.901 147.75 25.6957 147.75 26.735C147.75 28.7525 149.265 29.7612 152.294 29.7612H158.413V21.0037C158.413 17.305 156.59 15.4557 152.943 15.4557H145.525V11.6042H153.174C156.172 11.6042 158.475 12.3379 160.082 13.8051C161.689 15.2723 162.493 17.3815 162.493 20.1325V33.6126H152.154C149.527 33.6126 147.441 33.0319 145.896 31.8703C144.35 30.7088 143.578 29.0123 143.578 26.7809C143.578 24.5495 144.397 22.853 146.035 21.6914C147.673 20.5299 149.728 19.9491 152.201 19.9491C153.592 19.9491 155.075 20.1936 156.651 20.6827V20.6827Z" fill="black"/>
<path d="M183.073 11.6042V15.4557H174.867C173.971 15.4557 173.198 15.6238 172.549 15.9601C171.9 16.2963 171.576 16.7701 171.576 17.3815C171.576 17.7483 171.653 18.0845 171.807 18.3902C171.962 18.6653 172.131 18.8945 172.317 19.0779C172.533 19.2613 172.843 19.46 173.244 19.674C173.677 19.8574 174.001 19.995 174.218 20.0867C174.465 20.1478 175.454 20.4535 177.185 21.0037C178.916 21.5539 180.199 22.0124 181.033 22.3792C181.868 22.746 182.501 23.2504 182.934 23.8923C183.397 24.5036 183.691 25.115 183.815 25.7263C183.938 26.3071 184 26.8879 184 27.4687C184 31.5647 181.157 33.6127 175.47 33.6127H167.449V29.7612H175.47C178.375 29.7612 179.827 28.997 179.827 27.4687C179.827 26.735 179.395 26.1237 178.529 25.6346C177.695 25.1455 176.659 24.7329 175.423 24.3967C174.218 24.0604 172.997 23.6783 171.761 23.2504C170.555 22.7919 169.52 22.0735 168.654 21.0954C167.82 20.0867 167.403 18.8487 167.403 17.3815C167.403 15.5169 168.129 14.0955 169.582 13.1173C171.034 12.1086 172.796 11.6043 174.867 11.6043L183.073 11.6042Z" fill="black"/>
</svg>
