<svg width="210" height="215" viewBox="0 0 210 215" fill="none" xmlns="http://www.w3.org/2000/svg">
<circle cx="105" cy="105" r="105" fill="white"/>
<path d="M105 205C160.228 205 205 160.228 205 105C205 49.7715 160.228 5 105 5C49.7715 5 5 49.7715 5 105C5 160.228 49.7715 205 105 205Z" fill="#FF6600"/>
<path d="M163.088 116.164C164.005 118.521 165.622 120.208 167.938 121.227C170.254 122.245 172.59 122.295 174.946 121.377C177.303 120.459 178.99 118.842 180.009 116.525C181.028 114.208 181.078 111.871 180.162 109.514C179.245 107.157 177.628 105.47 175.312 104.451C172.996 103.433 170.66 103.383 168.304 104.301C165.947 105.219 164.26 106.836 163.241 109.153C162.222 111.47 162.172 113.807 163.088 116.164ZM40.6914 89.5053C39.7746 87.1484 39.8187 84.8269 40.8237 82.5408L60.8034 36.9683C61.8974 34.6475 63.6003 33.0369 65.9124 32.1364C68.2688 31.2186 70.5896 31.262 72.8747 32.2666L167.175 73.7788C169.504 74.7661 171.812 76.4533 174.097 78.8404C176.383 81.2275 177.984 83.5995 178.9 85.9564L189.695 113.705C190.594 116.017 190.528 118.348 189.496 120.695C188.463 123.043 186.791 124.668 184.479 125.568L156.735 136.374C154.379 137.292 151.549 137.716 148.245 137.646C144.941 137.576 142.115 137.025 139.769 135.993L45.5202 94.6142C43.2005 93.5206 41.5909 91.8177 40.6914 89.5053V89.5053Z" fill="white"/>
<path d="M162.473 121.568C163.868 123.702 165.814 125.031 168.311 125.553C170.808 126.076 173.124 125.64 175.258 124.244C177.392 122.849 178.72 120.903 179.243 118.405C179.766 115.908 179.329 113.592 177.934 111.458C176.539 109.324 174.593 107.995 172.096 107.472C169.599 106.95 167.284 107.386 165.15 108.781C163.016 110.177 161.687 112.123 161.165 114.621C160.642 117.118 161.078 119.434 162.473 121.568ZM34.7483 120.43C33.3532 118.295 32.9136 115.996 33.4294 113.532L43.6576 64.4232C44.254 61.9064 45.599 59.9635 47.6927 58.5944C49.8267 57.199 52.1256 56.7591 54.5893 57.2749L157.683 78.9084C160.187 79.3978 162.815 80.5823 165.567 82.4617C168.319 84.3411 170.392 86.3479 171.787 88.4821L188.212 113.609C189.581 115.703 190.001 118.016 189.471 120.546C188.941 123.077 187.63 125.027 185.536 126.396L160.411 142.825C158.277 144.221 155.573 145.227 152.298 145.845C149.024 146.463 146.122 146.507 143.591 145.978L40.5761 124.465C38.0597 123.869 36.1171 122.524 34.7483 120.43V120.43Z" fill="#FF9955"/>
<path d="M169.817 129.97C175.004 129.97 179.208 125.765 179.208 120.579C179.208 115.393 175.004 111.189 169.817 111.189C164.631 111.189 160.427 115.393 160.427 120.579C160.427 125.765 164.631 129.97 169.817 129.97Z" fill="white"/>
<path d="M163.286 127.075C165.089 128.878 167.266 129.779 169.818 129.779C172.369 129.779 174.546 128.878 176.349 127.075C178.152 125.272 179.053 123.095 179.053 120.543C179.053 117.992 178.152 115.815 176.349 114.012C174.546 112.209 172.369 111.307 169.818 111.307C167.266 111.307 165.089 112.209 163.286 114.012C161.483 115.815 160.582 117.992 160.582 120.543C160.582 123.095 161.483 125.272 163.286 127.075ZM36.5853 152.129C34.7824 150.326 33.8809 148.166 33.8809 145.648L33.8299 95.4892C33.8979 92.9039 34.8164 90.7268 36.5853 88.9578C38.3883 87.1549 40.5484 86.2534 43.0657 86.2534L149.856 86.3045C152.408 86.2705 155.223 86.8913 158.301 88.1669C161.38 89.4426 163.821 90.9819 165.624 92.7848L186.851 114.012C188.62 115.781 189.504 117.958 189.504 120.543C189.504 123.129 188.62 125.306 186.851 127.075L165.624 148.302C163.821 150.105 161.38 151.644 158.301 152.919C155.223 154.195 152.391 154.833 149.805 154.833L43.1167 154.884C40.5314 154.816 38.3543 153.897 36.5853 152.129Z" fill="#FF6600"/>
<path d="M43.0658 85.8445C40.4508 85.8445 38.1661 86.798 36.2958 88.6683C34.4583 90.5058 33.4913 92.8022 33.4209 95.4782V95.4842L33.472 145.649C33.4722 148.263 34.4257 150.548 36.2958 152.418C38.1334 154.256 40.4296 155.223 43.1057 155.293H43.1118L149.806 155.242C152.458 155.242 155.342 154.589 158.458 153.297C161.574 152.007 164.062 150.442 165.913 148.591L187.14 127.364C188.979 125.524 189.913 123.222 189.913 120.543C189.913 117.865 188.979 115.562 187.14 113.723L165.913 92.4953C164.062 90.6442 161.574 89.0799 158.458 87.7889C155.341 86.4975 152.473 85.8603 149.851 85.8952L43.0658 85.8445ZM43.0658 86.6627L149.86 86.7133H149.862C152.343 86.6802 155.105 87.2848 158.145 88.5447C161.187 89.8051 163.58 91.3195 165.335 93.0742L186.562 114.301C188.26 115.999 189.095 118.051 189.095 120.543C189.095 123.035 188.26 125.087 186.562 126.785L165.335 148.012C163.58 149.767 161.187 151.281 158.145 152.541C155.104 153.802 152.324 154.423 149.806 154.423L43.1234 154.475C40.6311 154.408 38.5746 153.539 36.8754 151.839C35.1398 150.104 34.2908 148.067 34.2908 145.648L34.2396 95.5001C34.3053 93.0055 35.1751 90.9471 36.8754 89.2468C38.6109 87.5113 40.6465 86.6628 43.0659 86.6627H43.0658ZM169.818 110.898C167.17 110.898 164.869 111.851 162.998 113.722C161.126 115.594 160.173 117.895 160.173 120.543C160.173 123.191 161.126 125.493 162.998 127.364C164.869 129.235 167.17 130.188 169.818 130.188C172.466 130.188 174.768 129.235 176.639 127.364C178.51 125.493 179.463 123.191 179.463 120.543C179.463 117.895 178.51 115.594 176.639 113.722C174.768 111.851 172.466 110.898 169.818 110.898ZM169.818 111.716C172.273 111.716 174.326 112.566 176.06 114.301C177.795 116.036 178.645 118.088 178.645 120.543C178.645 122.998 177.795 125.05 176.06 126.785C174.326 128.52 172.273 129.37 169.818 129.37C167.363 129.37 165.311 128.52 163.576 126.785C161.841 125.05 160.991 122.998 160.991 120.543C160.991 118.088 161.841 116.036 163.576 114.301C165.311 112.566 167.363 111.716 169.818 111.716Z" fill="white"/>
<path d="M40.8269 100.429V129.628H40.9632H42.2566V111.501H51.3204V110.071H42.2566V100.429H40.8269ZM41.0996 100.701H41.9839V110.344H51.0477V111.228H41.9839V129.355H41.0996V100.701Z" fill="white"/>
<path d="M61.9802 110.071C56.5839 110.071 52.202 114.453 52.202 119.849C52.202 125.245 56.5839 129.628 61.9802 129.628C65.5253 129.628 68.5935 127.728 70.3291 124.905V129.628H70.4655H71.7589V119.849C71.7589 114.453 67.3764 110.071 61.9802 110.071ZM61.9802 110.344C67.2289 110.344 71.4861 114.6 71.4861 119.849V129.355H70.6018V124.439L70.3461 124.373C68.7104 127.34 65.5935 129.355 61.9802 129.355C56.7315 129.355 52.4748 125.098 52.4748 119.849C52.4748 114.6 56.7315 110.344 61.9802 110.344ZM61.9802 111.228C57.239 111.228 53.3591 115.108 53.3591 119.849C53.3591 124.59 57.239 128.471 61.9802 128.471C66.7213 128.471 70.6018 124.59 70.6018 119.849C70.6018 115.108 66.7213 111.228 61.9802 111.228ZM61.9802 111.501C66.5726 111.501 70.3291 115.257 70.3291 119.849C70.3291 124.441 66.5726 128.198 61.9802 128.198C57.3877 128.198 53.6318 124.441 53.6318 119.849C53.6318 115.257 57.3877 111.501 61.9802 111.501Z" fill="white"/>
<path d="M85.1066 110.071C79.7103 110.071 75.3279 114.453 75.3279 119.849C75.3279 125.245 79.7103 129.628 85.1066 129.628C88.6487 129.628 91.7488 127.732 93.4555 124.911V129.491C93.4555 134.084 89.699 137.84 85.1066 137.84C82.7911 137.84 80.6666 136.891 79.1489 135.336L79.0525 135.237L78.0494 136.24L78.1437 136.336C79.9038 138.136 82.3691 139.27 85.1066 139.27C90.5028 139.27 94.8852 134.888 94.8852 129.491V110.071H93.4555V114.787C91.7488 111.967 88.6487 110.071 85.1066 110.071V110.071ZM85.1066 110.344C88.7199 110.344 91.8749 112.359 93.4714 115.324L93.7282 115.259V110.344H94.6125V129.491C94.6125 134.74 90.3553 138.997 85.1066 138.997C82.4934 138.997 80.1462 137.926 78.442 136.233L79.0594 135.616C80.6201 137.164 82.7659 138.113 85.1066 138.113C89.8477 138.113 93.7282 134.233 93.7282 129.491V124.439L93.4714 124.374C91.8749 127.339 88.7199 129.355 85.1066 129.355C79.8579 129.355 75.6006 125.098 75.6006 119.849C75.6006 114.6 79.8579 110.344 85.1066 110.344ZM85.1066 111.228C80.3654 111.228 76.4849 115.108 76.4849 119.849C76.4849 124.59 80.3654 128.471 85.1066 128.471C89.7301 128.471 93.7282 124.782 93.7282 119.849C93.7282 115.108 89.8477 111.228 85.1066 111.228ZM85.1066 111.501C89.699 111.501 93.4555 115.257 93.4555 119.849C93.4555 124.635 89.5852 128.198 85.1066 128.198C80.5141 128.198 76.7576 124.441 76.7576 119.849C76.7576 115.257 80.5141 111.501 85.1066 111.501Z" fill="white"/>
<path d="M98.4543 126.655V129.628H99.884V126.655H99.7476H98.4543ZM98.727 126.928H99.6113V129.355H98.727V126.928Z" fill="white"/>
<path d="M113.28 110.071C107.883 110.071 103.501 114.453 103.501 119.849C103.501 125.245 107.883 129.628 113.28 129.628C116.016 129.628 118.444 128.532 120.204 126.733L120.303 126.631L119.253 125.678L119.162 125.769C117.644 127.287 115.557 128.198 113.28 128.198C108.928 128.198 105.331 124.819 104.955 120.564H123.058V120.428V119.849C123.058 114.453 118.676 110.071 113.28 110.071V110.071ZM113.28 110.344C118.528 110.344 122.786 114.6 122.786 119.849V120.291H104.648L104.658 120.437C104.972 124.905 108.734 128.471 113.28 128.471C115.583 128.471 117.693 127.558 119.253 126.046L119.899 126.634C118.197 128.322 115.891 129.355 113.28 129.355C108.031 129.355 103.774 125.098 103.774 119.849C103.774 114.6 108.031 110.344 113.28 110.344H113.28ZM113.28 111.228C108.734 111.228 104.972 114.793 104.659 119.261L104.648 119.407H121.873L121.862 119.261C121.549 114.794 117.825 111.228 113.28 111.228H113.28ZM113.28 111.501C117.631 111.501 121.19 114.878 121.566 119.134H104.955C105.331 114.879 108.928 111.501 113.28 111.501V111.501Z" fill="white"/>
<path d="M126.627 110.071V129.628H128.057V119.849C128.057 117.622 128.782 115.527 129.925 113.996C131.068 112.464 132.621 111.501 134.285 111.501C137.582 111.501 140.512 115.045 140.512 119.849V129.628H141.942V119.849C141.942 117.447 142.667 115.354 143.808 113.867C144.95 112.38 146.501 111.501 148.169 111.501C149.875 111.501 151.426 112.427 152.558 113.938C153.691 115.45 154.397 117.543 154.397 119.849V129.628H154.533H155.826V119.849C155.826 117.159 154.979 114.72 153.599 112.949C152.219 111.177 150.299 110.071 148.169 110.071C145.04 110.071 142.418 112.441 141.225 115.777C139.998 112.441 137.378 110.071 134.285 110.071C131.675 110.071 129.422 111.759 128.057 114.252V110.071H126.627ZM126.9 110.344H127.784V114.72L128.043 114.779C129.337 112.116 131.646 110.344 134.285 110.344C137.337 110.344 139.954 112.76 141.097 116.19L141.229 116.585L141.357 116.188C142.462 112.759 145.078 110.344 148.169 110.344C150.205 110.344 152.045 111.397 153.384 113.116C154.723 114.834 155.554 117.216 155.554 119.849V129.355H154.669V119.849C154.669 117.488 153.949 115.339 152.777 113.775C151.605 112.21 149.974 111.228 148.169 111.228C146.405 111.228 144.775 112.161 143.592 113.701C142.41 115.242 141.669 117.392 141.669 119.849V129.355H140.785V119.849C140.785 114.934 137.776 111.228 134.285 111.228C132.516 111.228 130.887 112.25 129.706 113.833C128.525 115.416 127.784 117.563 127.784 119.849V129.355H126.9V110.344Z" fill="white"/>
<path d="M40.9648 129.493H42.1218V111.365H51.1855V110.208H42.1218V100.566H40.9648V129.493Z" fill="white"/>
<path d="M70.4655 129.491H71.6226V119.849C71.6226 114.527 67.3029 110.207 61.9804 110.207C56.6579 110.207 52.3382 114.527 52.3382 119.849C52.3382 125.172 56.6579 129.491 61.9804 129.491C65.6444 129.491 68.8071 127.447 70.4655 124.439V129.491ZM53.4953 119.849C53.4953 115.182 57.3136 111.364 61.9804 111.364C66.6472 111.364 70.4655 115.182 70.4655 119.849C70.4655 124.516 66.6472 128.334 61.9804 128.334C57.3136 128.334 53.4953 124.516 53.4953 119.849Z" fill="white"/>
<path d="M78.2413 136.241C79.9769 138.015 82.4067 139.134 85.1066 139.134C90.429 139.134 94.7487 134.814 94.7487 129.491V110.207H93.5917V115.26C91.9718 112.251 88.7706 110.207 85.1066 110.207C79.7841 110.207 75.4644 114.527 75.4644 119.849C75.4644 125.172 79.7841 129.491 85.1066 129.491C88.7706 129.491 91.9718 127.447 93.5917 124.439V129.491C93.5917 134.158 89.7733 137.977 85.1066 137.977C82.7538 137.977 80.594 137.012 79.0513 135.431L78.2413 136.241ZM93.5917 119.849C93.5917 124.709 89.6576 128.334 85.1066 128.334C80.4397 128.334 76.6214 124.516 76.6214 119.849C76.6214 115.182 80.4397 111.364 85.1066 111.364C89.7733 111.364 93.5917 115.182 93.5917 119.849Z" fill="white"/>
<path d="M99.7475 126.792H98.5904V129.491H99.7475V126.792Z" fill="white"/>
<path d="M122.922 120.428V119.849C122.922 114.527 118.602 110.207 113.28 110.207C107.957 110.207 103.638 114.527 103.638 119.849C103.638 125.172 107.957 129.491 113.28 129.491C115.979 129.491 118.371 128.411 120.106 126.637L119.258 125.866C117.715 127.409 115.594 128.334 113.28 128.334C108.806 128.334 105.103 124.825 104.795 120.428H122.922ZM113.28 111.364C117.754 111.364 121.418 114.874 121.726 119.271H104.795C105.103 114.874 108.806 111.364 113.28 111.364Z" fill="white"/>
<path d="M154.533 129.491H155.69V119.849C155.69 114.527 152.335 110.207 148.169 110.207C145.007 110.207 142.345 112.675 141.227 116.147C140.07 112.675 137.409 110.207 134.285 110.207C131.585 110.207 129.232 112.02 127.921 114.72V110.207H126.764V129.491H127.921V119.849C127.921 115.337 130.852 111.364 134.285 111.364C137.679 111.364 140.648 114.99 140.648 119.849V129.491H141.805V119.849C141.805 114.99 144.737 111.364 148.169 111.364C151.679 111.364 154.533 115.182 154.533 119.849V129.491Z" fill="white"/>
</svg>
