<svg width="36" height="36" viewBox="0 0 36 36" fill="none" xmlns="http://www.w3.org/2000/svg">
<path d="M30.0234 12.0234V9L18 16.5234L5.97656 9V12.0234L18 19.4766L30.0234 12.0234ZM30.0234 5.97656C30.8203 5.97656 31.5 6.28125 32.0625 6.89062C32.6719 7.5 32.9766 8.20312 32.9766 9V27C32.9766 27.7969 32.6719 28.5 32.0625 29.1094C31.5 29.7188 30.8203 30.0234 30.0234 30.0234H5.97656C5.17969 30.0234 4.47656 29.7188 3.86719 29.1094C3.30469 28.5 3.02344 27.7969 3.02344 27V9C3.02344 8.20312 3.30469 7.5 3.86719 6.89062C4.47656 6.28125 5.17969 5.97656 5.97656 5.97656H30.0234Z" fill="black"/>
</svg>
